HIERARCHY
ROOT pelvis
{
  OFFSET 0 100 0
  CHANNELS 6 Xposition Yposition Zposition Zrotation Xrotation Yrotation
  JOINT pelvis_right_femur
  {
    OFFSET -10.78128 -3.44521 -0.5502486
    CHANNELS 3 Zrotation Xrotation Yrotation
    JOINT right_femur_tibia
    {
      OFFSET -0.8047443 -44.0398 -0.1307829
      CHANNELS 3 Zrotation Xrotation Yrotation
      JOINT right_tibia_foot
      {
        OFFSET 3.006224 -47.83518 -5
        CHANNELS 3 Zrotation Xrotation Yrotation
        End Site
        {
          OFFSET 0 -5 15
        }
      }
    }
  }
  JOINT pelvis_left_femur
  {
    OFFSET 10.78128 -3.44521 -0.5502486
    CHANNELS 3 Zrotation Xrotation Yrotation
    JOINT left_femur_tibia
    {
      OFFSET 0.8047443 -44.0398 -0.1307829
      CHANNELS 3 Zrotation Xrotation Yrotation
      JOINT left_tibia_foot
      {
        OFFSET -4.370144 -48.10324 -4.275266
        CHANNELS 3 Zrotation Xrotation Yrotation
        End Site
        {
          OFFSET 0 -5 15
        }
      }
    }
  }
  JOINT pelvis_spine1
  {
    OFFSET 0 6.468898 -3.129235
    CHANNELS 3 Zrotation Xrotation Yrotation
    JOINT spine1
    {
      OFFSET 0 23.15396 4.99043
      CHANNELS 3 Zrotation Xrotation Yrotation
      JOINT spine2
      {
        OFFSET 0 20.79997 -5.064912
        CHANNELS 3 Zrotation Xrotation Yrotation
        JOINT neck
        {
          OFFSET 0 14.38658 9.616178
          CHANNELS 3 Zrotation Xrotation Yrotation
          End Site
          {
            OFFSET 0 20 0
          }
        }
      }
      JOINT right_manubrium
      {
        OFFSET -5.722621 16.35077 3.967754
        CHANNELS 3 Zrotation Xrotation Yrotation
        JOINT right_clavicle
        {
          OFFSET -13.16364 1.694482 -4.693211
          CHANNELS 3 Zrotation Xrotation Yrotation
          JOINT right_humerus
          {
            OFFSET -28.5034 -0.3100689 -2.792744
            CHANNELS 3 Zrotation Xrotation Yrotation
            JOINT right_radius
            {
              OFFSET -25.15693 0.02248979 -1.271978
              CHANNELS 3 Zrotation Xrotation Yrotation
              End Site
              {
                OFFSET -15 0 0
              }
            }
          }
        }
      }
      JOINT left_manubrium
      {
        OFFSET 5.722621 16.35077 3.967754
        CHANNELS 3 Zrotation Xrotation Yrotation
        JOINT left_clavicle
        {
          OFFSET 13.16364 1.694482 -4.693211
          CHANNELS 3 Zrotation Xrotation Yrotation
          JOINT left_humerus
          {
            OFFSET 29.39168 -1.063119 -2.237045
            CHANNELS 3 Zrotation Xrotation Yrotation
            JOINT left_radius
            {
              OFFSET 24.59957 -0.9528479 0.9047498
              CHANNELS 3 Zrotation Xrotation Yrotation
              End Site
              {
                OFFSET 15 -0 -0
              }
            }
          }
        }
      }
    }
  }
}
MOTION
Frames: 21
Frame Time: 0.0416666666667
0 103.5113 0 1.027268 -0.8402441 0.09939219 3.73969 -15.93361 7.619977 -0 39.0697 -0 -6.15977 -15.53491 -4.340576 -6.257136 12.79416 -25.50031 -0 4.513527 -0 -1.841857 -20.92708 23.32878 -3.324816 -3.328304 3.609558 1.438477 7.574174 -8.008727 0.1619515 23.13205 8.956913 5.933056 -21.20018 7.476271 8.851005 -18.28509 11.34652 85.28153 40.61966 -22.22221 -0 0 16.67984 -8.104904 9.696068 3.844027 5.473982 -19.52536 -3.568578 -102.5986 42.88227 29.92555 0 0 -19.9999 -13.38515 17.40423 29.40861
0.1493406 103.5438 1.228699 0.8896555 -1.116703 0.2366843 3.675749 -16.14315 7.450355 -0 40.41775 -0 -6.390033 -14.82246 -4.365323 -6.195111 12.71818 -24.81591 -0 4.306269 -0 -1.401302 -20.71715 22.99459 -3.342164 -3.124865 3.3561 1.550104 7.839299 -8.072343 0.127689 23.06924 8.83231 5.620482 -21.45496 7.50943 8.545456 -18.38163 11.50329 85.56027 40.03728 -21.92997 -0 0 16.21384 -8.569015 9.62114 4.51609 5.180268 -19.57142 -3.619306 -101.0633 41.98494 28.7312 0 0 -20.48288 -12.39163 17.15153 28.334
0.3437624 103.1353 4.062067 0.1784497 -0.827426 0.6048926 3.293967 -23.21498 4.469679 -0 31.8212 -0 -5.899062 -6.899282 -4.204425 -5.669154 13.14785 -18.51195 -0 6.634268 -0 -1.749968 -21.37193 18.13179 -2.949413 -1.493549 2.656836 2.278991 8.932449 -8.793524 0.2099454 21.81167 8.559613 4.490387 -22.91477 7.906222 6.178943 -18.05328 11.68517 88.11912 36.03865 -22.68381 -0 0 12.90979 -13.35454 10.82171 8.203105 5.164269 -21.34417 -3.955409 -91.77951 34.96485 20.04132 0 0 -25.2189 -6.221701 13.92145 21.81527
0.5162349 102.5404 7.305809 -0.08789122 -0.6010172 0.956384 3.427561 -25.17726 3.899518 -0 27.56808 -0 -5.930512 -5.700915 -4.254912 -5.414966 13.72486 -17.33153 -0 8.000247 -0 -2.336331 -21.91185 16.8585 -2.745128 -1.098084 2.504363 2.585636 8.820563 -8.900081 0.4223083 21.60215 8.285228 4.12737 -23.47578 8.111429 5.331804 -17.84491 11.52746 88.5796 34.24336 -22.81572 -0 0 12.23264 -13.63942 10.51558 8.446653 5.312058 -21.56354 -3.78489 -90.62631 33.45641 18.59067 0 0 -25.50907 -4.900482 13.44772 20.3392
0.6633903 101.6658 11.21563 -0.2486079 0.4665647 1.334374 3.515397 -29.03549 3.029544 -0 19.54152 -0 -5.411749 -3.4643 -4.296618 -5.255784 14.6146 -15.65595 -0 9.870297 -0 -3.566956 -22.90331 14.75239 -2.560589 -0.6685411 2.623833 2.888151 8.615006 -9.207539 0.6089462 20.99563 8.281766 4.097528 -24.05158 8.316895 4.734639 -17.32901 11.28806 89.23323 33.36908 -23.89895 -0 0 11.38052 -14.42242 11.11549 8.674845 5.868148 -22.31069 -3.619363 -89.05075 31.93824 16.52047 0 0 -27.15863 -3.703087 12.43432 19.18188
0.7914852 100.4369 15.8614 -0.3993615 1.242028 1.783851 3.445141 -32.76744 1.8991 -0 12.41304 -0 -5.127341 -0.7292966 -4.373224 -5.126327 15.62338 -13.48551 -0 11.56445 -0 -4.579084 -23.72652 12.44533 -2.409376 -0.1660987 2.590283 3.160372 8.552266 -9.50225 0.7792378 20.43863 8.160465 3.930368 -24.50357 8.417229 3.938072 -16.77033 11.12107 90.06135 32.10783 -24.79992 -0 0 10.14916 -15.47976 11.61173 9.13157 6.331161 -23.16834 -3.567738 -86.87693 29.72191 13.814 0 0 -29.23494 -1.877567 11.29152 17.22057
0.8812376 98.80345 21.42804 -0.4825489 2.031049 2.361152 3.297478 -36.90052 0.6432559 -0 4.599717 -0 -4.883816 2.299538 -4.671098 -5.031555 17.15302 -10.89827 -0 13.46373 -0 -5.879346 -24.53619 9.637784 -2.274957 0.3971079 2.492935 3.369316 8.383975 -9.774627 1.023064 19.87069 7.911894 3.713889 -24.67803 8.4294 3.03775 -15.8782 10.89369 90.99793 30.71735 -25.80218 -0 0 8.559983 -16.52089 12.21518 9.445393 6.88271 -24.13963 -3.541791 -84.26946 27.16093 10.31495 0 0 -31.92012 0.3178321 9.937735 14.79493
0.8963118 96.85807 27.88089 -0.4867407 2.167217 3.08596 3.548074 -39.03731 0.1585071 0 -0.02656213 0 -5.011082 3.784741 -5.441478 -4.891449 19.15337 -8.7852 -0 15.7019 -0 -7.274034 -24.54113 7.240436 -2.085143 0.8366229 2.166597 3.390327 7.916369 -9.738402 1.388621 19.73841 7.268491 3.251085 -24.17344 8.259909 2.127494 -14.657 10.58887 91.64539 28.95679 -26.13781 -0 0 6.928358 -16.37131 12.19762 9.006494 7.185611 -24.48676 -3.476731 -82.023 25.28588 6.777636 0 0 -33.75476 2.366376 8.923966 12.36054
0.8573366 95.36246 34.79116 -0.7306291 1.850432 3.898676 5.401071 -35.62798 2.494711 -0 4.558082 -0 -5.513692 1.544099 -6.508179 -4.353617 19.84063 -9.186651 -0 20.2869 -0 -8.679233 -21.47253 6.771125 -1.432982 0.6944451 1.816841 3.277481 7.186654 -9.242383 1.553944 20.0224 6.569888 2.800797 -23.53825 7.876341 2.509951 -13.76764 10.52721 91.04694 28.70214 -25.27698 -0 0 6.492455 -13.55712 11.24379 7.687378 6.538548 -23.00749 -3.110171 -82.219 26.55909 6.792095 0 0 -32.23736 2.258474 8.432569 12.80172
1.037404 95.51666 41.7342 -1.895478 3.193047 4.579299 7.891644 -28.54753 6.137154 -0 14.9537 -0 -5.150935 0.5035019 -5.944997 -3.531169 14.97157 -10.58417 -0 31.57507 -0 -9.867487 -13.35253 7.552096 0.1201468 -0.3006725 2.567072 3.7126 8.163293 -9.543521 0.3628645 18.90048 7.407233 3.480086 -25.46578 6.980266 5.918442 -15.17104 11.86671 89.42892 33.15437 -25.31855 -0 0 7.861408 -11.89592 11.68391 8.718186 4.764344 -21.37914 -2.741451 -86.10889 28.58575 14.55204 0 0 -29.24092 -0.6754526 5.863422 18.40935
1.327758 96.22757 48.91365 -1.662881 1.70936 4.523721 7.559831 -23.17475 5.770043 -0 15.69792 -0 -3.8005 2.598403 -5.754958 -3.346878 11.34119 -8.426799 -0 44.18971 -0 -9.358248 -8.159894 9.071207 0.4370205 -1.192504 3.59854 3.72858 10.46156 -10.13109 -0.2069439 18.61868 7.467528 3.927872 -24.85132 5.767132 7.063428 -15.99085 12.78501 90.1101 33.79946 -26.74099 -0 0 7.213619 -15.52106 13.35355 10.36655 4.221986 -22.56304 -3.621228 -86.10193 26.15434 15.62247 0 0 -29.03813 -0.8661082 4.627883 18.82012
1.530731 97.36092 56.13519 -0.9198919 -2.055387 3.641271 7.043321 -16.91032 5.136579 -0 14.25471 -0 -2.513606 2.463979 -5.945554 -3.162579 8.219528 -6.297234 -0 58.0815 -0 -8.660371 -5.085077 11.65762 0.3177342 -1.155125 4.506384 3.090518 12.08459 -9.444705 0.353246 19.74313 6.947372 3.838267 -22.18662 5.689131 6.363497 -15.59547 12.84068 90.65684 32.10384 -26.21744 -0 0 6.166281 -19.41394 15.15215 10.78641 4.01436 -23.27293 -4.420523 -85.37193 23.34062 13.51813 0 0 -27.69151 0.2763365 5.63978 15.98862
1.703625 99.1016 63.14552 -0.7665276 -3.277911 2.390005 7.444716 -12.6122 5.431137 -0 11.108 -0 -1.631855 3.748089 -4.562938 -2.561458 1.935436 -4.677931 -0 68.09559 -0 -8.405726 -3.095719 13.00742 0.5585938 -0.5551982 6.029917 2.636119 13.56062 -8.634764 0.5237243 19.67949 7.520922 4.416399 -21.80445 6.087655 6.650121 -16.34018 13.54092 89.79802 32.86591 -25.24257 -0 0 7.139379 -22.92258 17.63271 11.99907 3.806157 -23.85617 -4.843415 -86.33803 21.4478 15.25822 0 0 -27.54424 0.7141317 5.541639 15.2473
1.88994 100.7497 69.79447 -0.4993598 -2.773152 1.122068 7.533618 -9.162355 5.677663 -0 6.518469 -0 -1.603118 4.443648 -2.480642 -1.555742 -6.697881 -3.040385 -0 71.16209 -0 -7.833179 -2.503556 13.40004 0.5019538 0.1958389 7.805591 2.242996 14.60781 -7.942568 0.3497189 19.08397 8.324935 5.207157 -22.46885 6.221849 7.389416 -17.87037 14.53423 87.75592 35.2349 -23.59243 -0 0 9.563877 -25.95678 19.67046 13.78564 3.696055 -24.45131 -5.016632 -87.46663 20.43238 18.43457 0 0 -28.85973 0.7638626 4.92972 15.69626
2.126941 101.8445 76.08733 -0.1215526 -1.004014 0.001770489 7.181099 -6.454273 5.538613 -0 0.6408996 -0 -1.921453 4.291644 -0.134533 -0.007244882 -16.03088 -0.8521307 -0 68.09865 -0 -6.664433 -2.498156 13.15636 0.1776151 0.6276171 9.527307 2.025732 15.45375 -7.753851 -0.2235405 18.06343 9.188372 5.983827 -23.82916 5.982218 8.392957 -19.88907 15.70711 85.32289 38.89048 -21.9038 -0 0 12.46105 -29.18588 21.34299 16.38066 3.66628 -25.36633 -5.04427 -87.93271 19.54631 21.72204 0 0 -31.82691 0.8740618 3.920598 16.47712
2.405636 102.1148 82.07556 0.2538795 0.2691139 -0.9646992 6.502767 -3.552848 5.231656 0 -3.394783 0 -1.894982 1.878004 1.292433 1.635266 -23.11975 0.9955402 -0 60.90065 -0 -5.508726 -2.941372 13.19596 -0.2448839 0.807394 10.55544 1.786292 15.57183 -7.568447 -0.6371863 17.52007 9.514399 6.148988 -24.49034 5.744414 8.726262 -21.4717 16.31743 82.88891 41.27414 -19.46323 -0 0 15.15617 -31.31316 21.92675 18.38931 3.70324 -25.57173 -4.827206 -87.9446 19.18418 23.71621 0 0 -33.71103 0.936636 3.325069 16.8694
2.714051 101.6277 87.81868 0.5150927 0.5927889 -1.803678 5.767265 -0.173713 4.925042 0 -4.897973 0 -1.522254 -2.067813 1.756343 2.931293 -27.6524 2.044322 -0 52.3949 -0 -4.747942 -3.571217 13.74477 -0.6044808 0.8903997 10.91647 1.47297 15.02014 -7.156966 -0.7335116 17.61518 9.279116 5.761285 -24.26728 5.612762 8.257864 -22.47036 16.25125 80.67874 41.61072 -16.38532 -0 0 17.48359 -31.91902 21.40553 19.28966 3.769044 -24.86364 -4.421336 -88.0494 19.41601 24.67454 0 0 -33.52578 0.7709373 3.230318 16.9817
3.03469 100.5349 93.42963 0.6407191 -0.2332774 -2.550172 5.058586 3.876859 4.677358 0 -3.62097 0 -0.9645939 -6.843616 1.34623 3.54116 -29.79687 1.986764 -0 43.93865 -0 -4.555421 -4.368585 14.88074 -0.8467666 0.9851206 10.70673 1.034002 13.87643 -6.372737 -0.419252 18.39839 8.485092 4.925778 -23.09376 5.627295 6.938711 -22.88024 15.49149 79.02902 39.46689 -12.93399 -0 0 19.48484 -30.93914 19.73878 18.90379 3.862586 -23.19124 -3.907046 -88.61079 20.24642 24.89198 0 0 -30.79886 0.2637467 3.624101 16.9554
3.368749 99.03409 99.06948 0.6506133 -1.525101 -3.241527 4.40775 8.074472 4.463723 0 -0.9222575 0 -0.3532037 -11.13483 0.6508193 3.696186 -30.62269 1.362816 -0 35.97877 -0 -4.677194 -5.196705 16.23528 -0.9801497 1.023205 10.27042 0.5619559 12.58706 -5.45881 0.09300838 19.39078 7.513286 3.990449 -21.61182 5.753562 5.270314 -23.03735 14.44528 78.14212 36.09472 -9.816134 -0 0 21.25585 -29.52019 17.59062 18.07813 3.968697 -21.18542 -3.413201 -89.48515 21.20994 24.96126 0 0 -26.87475 -0.4204117 4.150003 16.95225
3.723206 97.29751 104.9047 0.5901726 -2.955691 -3.895543 3.759196 12.14647 4.287725 -0 2.88513 -0 0.2510438 -14.33667 -0.1159174 3.467616 -30.53033 0.3712365 -0 28.7493 -0 -4.971739 -6.009965 17.61025 -1.0606 0.9579735 9.750612 0.09155726 11.32649 -4.529515 0.7079203 20.38811 6.527555 3.105607 -20.10378 5.96585 3.523093 -23.03488 13.29003 77.97219 32.21122 -7.216947 -0 0 22.78117 -28.12695 15.2675 17.16607 4.062713 -19.11064 -2.975813 -90.55489 22.13306 25.09034 0 0 -22.35904 -1.190134 4.675174 17.03212
4.11403 95.53402 111.0763 0.5305275 -4.069535 -4.505802 3.061034 15.60792 4.179131 -0 7.336878 -0 0.8422766 -15.88006 -0.7081573 2.962014 -29.94929 -0.7219091 -0 22.7239 -0 -5.258654 -6.698259 18.71574 -1.17232 0.7259846 9.314353 -0.3200516 10.30666 -3.764005 1.264847 21.12787 5.764648 2.450989 -18.9401 6.216085 2.10112 -22.95981 12.26475 78.19948 28.88946 -5.299083 -0 0 23.96704 -27.24504 13.30285 16.53658 4.103902 -17.3262 -2.614522 -91.57471 22.81334 25.43032 0 0 -18.1836 -1.905156 5.068614 17.22397
